<svg width="183" height="24" viewBox="0 0 183 24" fill="none" xmlns="http://www.w3.org/2000/svg">
<path d="M0.3125 0.15625C1.04167 0.260417 1.67708 0.34375 2.21875 0.40625C2.76042 0.46875 3.20833 0.520833 3.5625 0.5625C3.97917 0.604167 4.33333 0.635417 4.625 0.65625C4.95833 0.697917 5.36458 0.677083 5.84375 0.59375C6.34375 0.510417 6.875 0.427083 7.4375 0.34375C8 0.239583 8.58333 0.15625 9.1875 0.09375C9.79167 0.03125 10.375 0.03125 10.9375 0.09375C11.3125 0.135417 11.7917 0.21875 12.375 0.34375C12.9583 0.46875 13.5729 0.666667 14.2188 0.9375C14.8854 1.20833 15.5521 1.5625 16.2188 2C16.8854 2.4375 17.4896 2.98958 18.0312 3.65625C18.5729 4.32292 19.0208 5.11458 19.375 6.03125C19.7292 6.94792 19.9271 8.02083 19.9688 9.25C20.0312 11.0833 19.8646 12.75 19.4688 14.25C19.0729 15.75 18.4583 17.0312 17.625 18.0938C16.8125 19.1562 15.7812 19.9896 14.5312 20.5938C13.2812 21.1979 11.8229 21.5312 10.1562 21.5938C8.88542 21.6979 7.63542 21.7917 6.40625 21.875C5.88542 21.9167 5.33333 21.9479 4.75 21.9688C4.1875 21.9896 3.625 22.0104 3.0625 22.0312C2.5 22.0312 1.95833 22.0208 1.4375 22C0.916667 21.9792 0.4375 21.9479 0 21.9062C0.479167 21.6771 0.864583 21.4479 1.15625 21.2188C1.46875 20.9896 1.70833 20.7917 1.875 20.625C2.0625 20.4167 2.19792 20.2292 2.28125 20.0625C2.32292 19.8333 2.38542 19.3854 2.46875 18.7188C2.53125 18.1562 2.61458 17.3542 2.71875 16.3125C2.82292 15.2708 2.94792 13.8542 3.09375 12.0625L3.28125 9.84375C3.38542 8.46875 3.42708 7.34375 3.40625 6.46875C3.40625 5.59375 3.38542 4.90625 3.34375 4.40625C3.28125 3.82292 3.19792 3.39583 3.09375 3.125C3.01042 2.89583 2.85417 2.625 2.625 2.3125C2.41667 2.0625 2.125 1.76042 1.75 1.40625C1.39583 1.03125 0.916667 0.614583 0.3125 0.15625ZM6.90625 11.6562C6.94792 13.5104 7.04167 14.9375 7.1875 15.9375C7.35417 16.9167 7.53125 17.6458 7.71875 18.125C7.94792 18.6667 8.19792 18.9896 8.46875 19.0938C8.86458 19.0938 9.3125 18.9271 9.8125 18.5938C10.3125 18.2396 10.8021 17.7083 11.2812 17C11.7812 16.2917 12.2292 15.4062 12.625 14.3438C13.0417 13.2812 13.3438 12.0417 13.5312 10.625C13.7188 9.20833 13.6667 7.95833 13.375 6.875C13.0833 5.79167 12.6979 4.88542 12.2188 4.15625C11.7396 3.40625 11.25 2.84375 10.75 2.46875C10.25 2.07292 9.875 1.875 9.625 1.875C9.33333 1.875 9.07292 1.95833 8.84375 2.125C8.61458 2.27083 8.29167 2.61458 7.875 3.15625C7.66667 3.44792 7.47917 3.86458 7.3125 4.40625C7.16667 4.88542 7.04167 5.52083 6.9375 6.3125C6.83333 7.10417 6.80208 8.125 6.84375 9.375L6.90625 11.6562ZM29.5312 17.4062C30.1146 17.4062 30.6562 17.3438 31.1562 17.2188C31.5729 17.1146 31.9688 16.9479 32.3438 16.7188C32.7396 16.4688 33 16.1042 33.125 15.625C33.5417 15.7083 33.8958 15.7812 34.1875 15.8438C34.4792 15.8854 34.7292 15.9271 34.9375 15.9688C35.1667 16.0312 35.3646 16.0729 35.5312 16.0938C35.6979 16.1354 35.8958 16.1771 36.125 16.2188C36.3333 16.2604 36.5833 16.3125 36.875 16.375C37.1875 16.4167 37.5521 16.4792 37.9688 16.5625C37.6562 16.5208 37.3333 16.5521 37 16.6562C36.6875 16.7604 36.3854 16.875 36.0938 17C35.7604 17.1458 35.4479 17.3229 35.1562 17.5312C34.9688 17.6562 34.75 17.8438 34.5 18.0938C34.2708 18.3438 33.9375 18.5833 33.5 18.8125C33.0625 19.0417 32.4792 19.2396 31.75 19.4062C31.0417 19.5521 30.125 19.6042 29 19.5625C27.6458 19.5208 26.5104 19.2812 25.5938 18.8438C24.6771 18.3854 23.9375 17.8333 23.375 17.1875C22.8125 16.5208 22.4062 15.8021 22.1562 15.0312C21.9062 14.2604 21.7708 13.5417 21.75 12.875C21.7292 12.2083 21.9271 11.5104 22.3438 10.7812C22.7604 10.0521 23.3438 9.38542 24.0938 8.78125C24.8646 8.17708 25.7917 7.6875 26.875 7.3125C27.9583 6.91667 29.1458 6.71875 30.4375 6.71875C31.1875 6.71875 31.875 6.8125 32.5 7C33.1458 7.16667 33.7292 7.39583 34.25 7.6875C34.7917 7.97917 35.2604 8.3125 35.6562 8.6875C36.0521 9.04167 36.3854 9.40625 36.6562 9.78125C36.9271 10.1771 37.1562 10.5938 37.3438 11.0312C37.5104 11.4062 37.6458 11.8333 37.75 12.3125C37.8542 12.7917 37.8854 13.2812 37.8438 13.7812C36.2604 13.8229 34.9792 13.8542 34 13.875C33.0417 13.8958 32.2917 13.9062 31.75 13.9062H30.3438H29.2812C28.9062 13.9062 28.4167 13.9167 27.8125 13.9375C27.2083 13.9583 26.4688 13.9896 25.5938 14.0312C25.6979 14.8646 25.9583 15.5104 26.375 15.9688C26.8125 16.4062 27.2708 16.7396 27.75 16.9688C28.2917 17.2188 28.8854 17.3646 29.5312 17.4062ZM26.7188 11.7812C27.3854 11.8229 27.9375 11.8542 28.375 11.875C28.8333 11.8958 29.2083 11.9167 29.5 11.9375C29.8125 11.9583 30.0625 11.9688 30.25 11.9688H31.0312C31.5521 11.9688 32.5208 11.9375 33.9375 11.875C33.875 10.9583 33.6771 10.2604 33.3438 9.78125C33.0312 9.30208 32.6979 8.94792 32.3438 8.71875C31.9271 8.46875 31.4688 8.32292 30.9688 8.28125C29.6146 8.30208 28.6042 8.58333 27.9375 9.125C27.2917 9.66667 26.8854 10.5521 26.7188 11.7812ZM52.875 4.59375C52.6875 5.05208 52.5208 5.46875 52.375 5.84375C52.25 6.21875 52.1354 6.55208 52.0312 6.84375C51.9271 7.17708 51.8333 7.46875 51.75 7.71875C51.6667 8.01042 51.5729 8.34375 51.4688 8.71875C51.3646 9.05208 51.2292 9.46875 51.0625 9.96875C50.9167 10.4479 50.7396 11.0208 50.5312 11.6875C50.3646 10.6875 50.0625 9.89583 49.625 9.3125C49.1875 8.70833 48.7396 8.23958 48.2812 7.90625C47.7396 7.53125 47.1562 7.26042 46.5312 7.09375C45.4062 6.90625 44.5938 6.92708 44.0938 7.15625C43.5938 7.38542 43.2604 7.67708 43.0938 8.03125C43.0104 8.17708 42.9167 8.36458 42.8125 8.59375C42.7292 8.80208 42.6562 9.02083 42.5938 9.25C42.5521 9.47917 42.5417 9.70833 42.5625 9.9375C42.5833 10.1667 42.6771 10.3542 42.8438 10.5C42.9479 10.6042 43.2188 10.75 43.6562 10.9375C44.0938 11.1042 44.6146 11.3021 45.2188 11.5312C45.8438 11.7396 46.5 11.9688 47.1875 12.2188C47.8958 12.4688 48.5625 12.7188 49.1875 12.9688C49.8125 13.2188 50.3542 13.4688 50.8125 13.7188C51.2708 13.9688 51.5729 14.1979 51.7188 14.4062C51.8438 14.6146 51.9792 14.8958 52.125 15.25C52.2917 15.5833 52.4062 15.9583 52.4688 16.375C52.5521 16.7708 52.5729 17.1875 52.5312 17.625C52.5104 18.0417 52.3958 18.4583 52.1875 18.875C51.9792 19.2917 51.6458 19.6771 51.1875 20.0312C50.75 20.3854 50.1562 20.6771 49.4062 20.9062C48.5312 21.1771 47.6875 21.25 46.875 21.125C46.0625 21 45.3125 20.8125 44.625 20.5625C43.9583 20.3125 43.375 20.0729 42.875 19.8438C42.375 19.5938 42.0208 19.4896 41.8125 19.5312C41.5833 19.5729 41.3229 19.6875 41.0312 19.875C40.7396 20.0625 40.4583 20.2604 40.1875 20.4688C39.9375 20.6562 39.7188 20.8333 39.5312 21C39.3438 21.1458 39.25 21.1979 39.25 21.1562C39.25 21.1146 39.2812 20.9896 39.3438 20.7812C39.4271 20.5729 39.5104 20.3229 39.5938 20.0312C39.6979 19.7188 39.7917 19.3854 39.875 19.0312C39.9792 18.6562 40.0521 18.3021 40.0938 17.9688C40.1354 17.6979 40.1875 17.3646 40.25 16.9688C40.2917 16.6146 40.3438 16.1875 40.4062 15.6875C40.4896 15.1667 40.5833 14.5417 40.6875 13.8125C40.7917 14.3542 40.9375 14.8229 41.125 15.2188C41.3333 15.6146 41.5312 15.9583 41.7188 16.25C41.9479 16.5833 42.1667 16.8646 42.375 17.0938C42.6875 17.3854 43.0521 17.6562 43.4688 17.9062C43.9062 18.1562 44.3438 18.375 44.7812 18.5625C45.2188 18.7292 45.6354 18.8333 46.0312 18.875C46.4271 18.9167 46.7604 18.875 47.0312 18.75C47.3021 18.625 47.5312 18.3958 47.7188 18.0625C47.9271 17.7292 48.0729 17.3646 48.1562 16.9688C48.2396 16.5729 48.2708 16.1979 48.25 15.8438C48.2292 15.4688 48.1354 15.1667 47.9688 14.9375C47.8438 14.7917 47.5521 14.6042 47.0938 14.375C46.6562 14.1458 46.125 13.8958 45.5 13.625C44.8958 13.3542 44.25 13.0729 43.5625 12.7812C42.8958 12.4896 42.2604 12.1979 41.6562 11.9062C41.0729 11.5938 40.5833 11.3021 40.1875 11.0312C39.8125 10.7396 39.6042 10.4792 39.5625 10.25C39.5208 9.91667 39.4896 9.55208 39.4688 9.15625C39.4479 8.73958 39.4688 8.33333 39.5312 7.9375C39.6146 7.52083 39.7604 7.125 39.9688 6.75C40.1979 6.375 40.5312 6.0625 40.9688 5.8125C41.2604 5.64583 41.6458 5.52083 42.125 5.4375C42.6042 5.35417 43.1354 5.3125 43.7188 5.3125C44.3021 5.29167 44.9062 5.3125 45.5312 5.375C46.1562 5.41667 46.75 5.47917 47.3125 5.5625C47.8958 5.625 48.4167 5.70833 48.875 5.8125C49.3542 5.91667 49.7188 6.01042 49.9688 6.09375C50.2604 6.19792 50.5729 6.20833 50.9062 6.125C51.1979 6.0625 51.5104 5.92708 51.8438 5.71875C52.1771 5.51042 52.5208 5.13542 52.875 4.59375ZM53.625 2.75C54.25 2.8125 54.7708 2.86458 55.1875 2.90625C55.625 2.94792 55.9792 2.97917 56.25 3C56.5625 3.02083 56.8125 3.03125 57 3.03125C57.1875 3.05208 57.4375 3.05208 57.75 3.03125C58.0208 3.01042 58.375 2.98958 58.8125 2.96875C59.25 2.92708 59.8021 2.86458 60.4688 2.78125C60.3229 2.98958 60.2083 3.17708 60.125 3.34375C60.0417 3.48958 59.9688 3.625 59.9062 3.75L59.7188 4.125C59.6771 4.25 59.6354 4.375 59.5938 4.5C59.5521 4.60417 59.5104 4.72917 59.4688 4.875C59.4479 5.02083 59.4271 5.17708 59.4062 5.34375H64.2188L63.7812 7.875L59.375 7.625C59.2708 8.6875 59.1979 9.51042 59.1562 10.0938C59.1146 10.6771 59.0729 11.1042 59.0312 11.375L58.9688 11.9375C58.9062 12.7292 58.8438 13.5938 58.7812 14.5312C58.7188 15.4479 58.6979 16.3021 58.7188 17.0938C58.7396 17.8854 58.8125 18.5521 58.9375 19.0938C59.0625 19.6146 59.2812 19.875 59.5938 19.875C59.9062 19.875 60.1979 19.7917 60.4688 19.625C60.7396 19.4583 60.9688 19.2604 61.1562 19.0312C61.3646 18.8021 61.5208 18.5729 61.625 18.3438C61.7292 18.0938 61.7812 17.9062 61.7812 17.7812C61.7812 17.6562 61.75 17.5104 61.6875 17.3438C61.5833 17.0312 61.3958 16.6354 61.125 16.1562C61.7292 16.3021 62.2604 16.4479 62.7188 16.5938C62.9479 16.6771 63.1562 16.7604 63.3438 16.8438C63.5521 16.9271 63.7917 17.0208 64.0625 17.125C64.2917 17.2292 64.5833 17.3542 64.9375 17.5C65.2917 17.6458 65.7083 17.8229 66.1875 18.0312C65.7292 18.1146 65.3958 18.25 65.1875 18.4375C65.0625 18.5208 64.9688 18.6146 64.9062 18.7188C64.7604 18.9479 64.5938 19.2604 64.4062 19.6562C64.2188 20.0312 63.9375 20.4062 63.5625 20.7812C63.1875 21.1562 62.6771 21.4896 62.0312 21.7812C61.4062 22.0729 60.5625 22.2396 59.5 22.2812C58.3958 22.3229 57.5521 22.1354 56.9688 21.7188C56.4062 21.3021 55.9896 20.8229 55.7188 20.2812C55.4688 19.7188 55.3229 19.1667 55.2812 18.625C55.2396 18.0833 55.2083 17.7188 55.1875 17.5312C55.1667 17.3438 55.1667 16.875 55.1875 16.125C55.2083 15.375 55.2396 14.5521 55.2812 13.6562C55.3229 12.7396 55.3646 11.8646 55.4062 11.0312C55.4479 10.1771 55.4688 9.55208 55.4688 9.15625C55.4688 8.94792 55.4792 8.72917 55.5 8.5C55.5 8.3125 55.5 8.11458 55.5 7.90625C55.5208 7.67708 55.5312 7.45833 55.5312 7.25L51 7.21875L50.8125 5.4375L55.375 5.5625C55.3333 5.33333 55.2812 5.125 55.2188 4.9375C55.1771 4.72917 55.1354 4.5625 55.0938 4.4375C55.0312 4.29167 54.9688 4.16667 54.9062 4.0625C54.8229 3.95833 54.7292 3.84375 54.625 3.71875C54.5208 3.61458 54.3854 3.47917 54.2188 3.3125C54.0521 3.14583 53.8542 2.95833 53.625 2.75ZM64.9062 8.46875L70.6562 8.53125C70.3229 9.80208 70.0729 10.8854 69.9062 11.7812C69.7604 12.6771 69.6667 13.4271 69.625 14.0312C69.5417 14.7188 69.5208 15.3021 69.5625 15.7812C69.625 16.2188 69.7292 16.6875 69.875 17.1875C70 17.6042 70.1875 18.0833 70.4375 18.625C70.6875 19.1667 71.0208 19.7083 71.4375 20.25C71.1875 20.1667 70.9167 20.1042 70.625 20.0625C70.3333 20.0208 70.0625 19.9896 69.8125 19.9688C69.5208 19.9479 69.2292 19.9479 68.9375 19.9688C68.6458 19.9896 68.3229 20.0208 67.9688 20.0625C67.6771 20.1042 67.3229 20.1562 66.9062 20.2188C66.4896 20.2812 66.0521 20.3646 65.5938 20.4688C65.9062 19.5312 66.1458 18.7188 66.3125 18.0312C66.5 17.3438 66.6354 16.7708 66.7188 16.3125C66.8021 15.7708 66.8542 15.3333 66.875 15C66.875 14.5833 66.875 14.1146 66.875 13.5938C66.875 13.0521 66.875 12.5312 66.875 12.0312C66.875 11.5312 66.8646 11.0938 66.8438 10.7188C66.8229 10.3229 66.7812 10.0729 66.7188 9.96875L66.4062 9.65625C66.2812 9.55208 66.0938 9.40625 65.8438 9.21875C65.6146 9.01042 65.3021 8.76042 64.9062 8.46875ZM67.125 3.65625C67.5625 3.42708 68 3.36458 68.4375 3.46875C68.8958 3.57292 69.25 3.77083 69.5 4.0625C69.75 4.35417 69.8333 4.69792 69.75 5.09375C69.6875 5.48958 69.3542 5.875 68.75 6.25C68.1458 6.60417 67.6146 6.72917 67.1562 6.625C66.6979 6.52083 66.375 6.30208 66.1875 5.96875C66 5.63542 65.9688 5.25 66.0938 4.8125C66.2188 4.35417 66.5625 3.96875 67.125 3.65625ZM73.5312 19C73.6771 18.3125 73.7812 17.7083 73.8438 17.1875C73.9271 16.6458 73.9896 16.1979 74.0312 15.8438C74.0729 15.4271 74.0938 15.0729 74.0938 14.7812C74.0729 14.4271 74.0521 14.0104 74.0312 13.5312C74.0312 13.0312 74.0104 12.5417 73.9688 12.0625C73.9479 11.5625 73.9167 11.125 73.875 10.75C73.8333 10.3542 73.7812 10.0729 73.7188 9.90625C73.6354 9.73958 73.5208 9.5625 73.375 9.375C73.0833 9.02083 72.6562 8.67708 72.0938 8.34375C72.5729 8.23958 72.9792 8.15625 73.3125 8.09375C73.6667 8.01042 73.9583 7.9375 74.1875 7.875C74.4375 7.79167 74.6562 7.71875 74.8438 7.65625C75.0104 7.59375 75.2083 7.53125 75.4375 7.46875C75.625 7.42708 75.8542 7.375 76.125 7.3125C76.3958 7.25 76.7083 7.17708 77.0625 7.09375L76.9688 9.9375C77.6354 9.14583 78.3125 8.55208 79 8.15625C79.6875 7.76042 80.3333 7.47917 80.9375 7.3125C81.625 7.10417 82.3021 7 82.9688 7C83.8021 7.04167 84.5729 7.17708 85.2812 7.40625C86.0104 7.63542 86.6354 7.90625 87.1562 8.21875C87.6979 8.51042 88.1354 8.82292 88.4688 9.15625C88.8021 9.48958 89 9.78125 89.0625 10.0312C89.3125 10.8438 89.375 11.5938 89.25 12.2812C89.125 12.9479 88.9583 13.6042 88.75 14.25C88.5625 14.875 88.3958 15.5 88.25 16.125C88.125 16.75 88.1771 17.4271 88.4062 18.1562C88.4896 18.3438 88.5729 18.5312 88.6562 18.7188C88.7396 18.8854 88.8438 19.0521 88.9688 19.2188C89.0938 19.3854 89.2396 19.5208 89.4062 19.625C89.1771 19.6042 88.9479 19.5938 88.7188 19.5938C88.4896 19.5729 88.2812 19.5521 88.0938 19.5312C87.8646 19.5104 87.6562 19.4896 87.4688 19.4688C87.2604 19.4479 86.9792 19.4375 86.625 19.4375C86.0208 19.4375 85.0833 19.4688 83.8125 19.5312C84 19.0938 84.1458 18.7292 84.25 18.4375C84.375 18.125 84.4792 17.875 84.5625 17.6875C84.6458 17.4583 84.7083 17.2812 84.75 17.1562C85 16.5521 85.1458 15.8646 85.1875 15.0938C85.25 14.3229 85.1979 13.5417 85.0312 12.75C84.9688 12.4792 84.8646 12.1562 84.7188 11.7812C84.5729 11.4062 84.375 11.0417 84.125 10.6875C83.8958 10.3333 83.6146 10.0312 83.2812 9.78125C82.9688 9.53125 82.6042 9.38542 82.1875 9.34375C81.7708 9.30208 81.3021 9.40625 80.7812 9.65625C80.2812 9.90625 79.7396 10.3646 79.1562 11.0312C78.7188 11.5938 78.375 12.2812 78.125 13.0938C77.8958 13.7812 77.7396 14.6458 77.6562 15.6875C77.5729 16.7083 77.6979 17.9062 78.0312 19.2812C77.7396 19.2396 77.4688 19.2188 77.2188 19.2188C76.9688 19.1979 76.7604 19.1771 76.5938 19.1562C76.3854 19.1354 76.1979 19.1146 76.0312 19.0938C75.8438 19.0938 75.6354 19.0833 75.4062 19.0625C75.1979 19.0625 74.9375 19.0625 74.625 19.0625C74.3125 19.0417 73.9479 19.0208 73.5312 19ZM99.4375 17.4062C100.021 17.4062 100.562 17.3438 101.062 17.2188C101.479 17.1146 101.875 16.9479 102.25 16.7188C102.646 16.4688 102.906 16.1042 103.031 15.625C103.448 15.7083 103.802 15.7812 104.094 15.8438C104.385 15.8854 104.635 15.9271 104.844 15.9688C105.073 16.0312 105.271 16.0729 105.438 16.0938C105.604 16.1354 105.802 16.1771 106.031 16.2188C106.24 16.2604 106.49 16.3125 106.781 16.375C107.094 16.4167 107.458 16.4792 107.875 16.5625C107.562 16.5208 107.24 16.5521 106.906 16.6562C106.594 16.7604 106.292 16.875 106 17C105.667 17.1458 105.354 17.3229 105.062 17.5312C104.875 17.6562 104.656 17.8438 104.406 18.0938C104.177 18.3438 103.844 18.5833 103.406 18.8125C102.969 19.0417 102.385 19.2396 101.656 19.4062C100.948 19.5521 100.031 19.6042 98.9062 19.5625C97.5521 19.5208 96.4167 19.2812 95.5 18.8438C94.5833 18.3854 93.8438 17.8333 93.2812 17.1875C92.7188 16.5208 92.3125 15.8021 92.0625 15.0312C91.8125 14.2604 91.6771 13.5417 91.6562 12.875C91.6354 12.2083 91.8333 11.5104 92.25 10.7812C92.6667 10.0521 93.25 9.38542 94 8.78125C94.7708 8.17708 95.6979 7.6875 96.7812 7.3125C97.8646 6.91667 99.0521 6.71875 100.344 6.71875C101.094 6.71875 101.781 6.8125 102.406 7C103.052 7.16667 103.635 7.39583 104.156 7.6875C104.698 7.97917 105.167 8.3125 105.562 8.6875C105.958 9.04167 106.292 9.40625 106.562 9.78125C106.833 10.1771 107.062 10.5938 107.25 11.0312C107.417 11.4062 107.552 11.8333 107.656 12.3125C107.76 12.7917 107.792 13.2812 107.75 13.7812C106.167 13.8229 104.885 13.8542 103.906 13.875C102.948 13.8958 102.198 13.9062 101.656 13.9062H100.25H99.1875C98.8125 13.9062 98.3229 13.9167 97.7188 13.9375C97.1146 13.9583 96.375 13.9896 95.5 14.0312C95.6042 14.8646 95.8646 15.5104 96.2812 15.9688C96.7188 16.4062 97.1771 16.7396 97.6562 16.9688C98.1979 17.2188 98.7917 17.3646 99.4375 17.4062ZM96.625 11.7812C97.2917 11.8229 97.8438 11.8542 98.2812 11.875C98.7396 11.8958 99.1146 11.9167 99.4062 11.9375C99.7188 11.9583 99.9688 11.9688 100.156 11.9688H100.938C101.458 11.9688 102.427 11.9375 103.844 11.875C103.781 10.9583 103.583 10.2604 103.25 9.78125C102.938 9.30208 102.604 8.94792 102.25 8.71875C101.833 8.46875 101.375 8.32292 100.875 8.28125C99.5208 8.30208 98.5104 8.58333 97.8438 9.125C97.1979 9.66667 96.7917 10.5521 96.625 11.7812ZM117.125 17.4062C117.708 17.4062 118.25 17.3438 118.75 17.2188C119.167 17.1146 119.562 16.9479 119.938 16.7188C120.333 16.4688 120.594 16.1042 120.719 15.625C121.135 15.7083 121.49 15.7812 121.781 15.8438C122.073 15.8854 122.323 15.9271 122.531 15.9688C122.76 16.0312 122.958 16.0729 123.125 16.0938C123.292 16.1354 123.49 16.1771 123.719 16.2188C123.927 16.2604 124.177 16.3125 124.469 16.375C124.781 16.4167 125.146 16.4792 125.562 16.5625C125.25 16.5208 124.927 16.5521 124.594 16.6562C124.281 16.7604 123.979 16.875 123.688 17C123.354 17.1458 123.042 17.3229 122.75 17.5312C122.562 17.6562 122.344 17.8438 122.094 18.0938C121.865 18.3438 121.531 18.5833 121.094 18.8125C120.656 19.0417 120.073 19.2396 119.344 19.4062C118.635 19.5521 117.719 19.6042 116.594 19.5625C115.24 19.5208 114.104 19.2812 113.188 18.8438C112.271 18.3854 111.531 17.8333 110.969 17.1875C110.406 16.5208 110 15.8021 109.75 15.0312C109.5 14.2604 109.365 13.5417 109.344 12.875C109.323 12.2083 109.521 11.5104 109.938 10.7812C110.354 10.0521 110.938 9.38542 111.688 8.78125C112.458 8.17708 113.385 7.6875 114.469 7.3125C115.552 6.91667 116.74 6.71875 118.031 6.71875C118.781 6.71875 119.469 6.8125 120.094 7C120.74 7.16667 121.323 7.39583 121.844 7.6875C122.385 7.97917 122.854 8.3125 123.25 8.6875C123.646 9.04167 123.979 9.40625 124.25 9.78125C124.521 10.1771 124.75 10.5938 124.938 11.0312C125.104 11.4062 125.24 11.8333 125.344 12.3125C125.448 12.7917 125.479 13.2812 125.438 13.7812C123.854 13.8229 122.573 13.8542 121.594 13.875C120.635 13.8958 119.885 13.9062 119.344 13.9062H117.938H116.875C116.5 13.9062 116.01 13.9167 115.406 13.9375C114.802 13.9583 114.062 13.9896 113.188 14.0312C113.292 14.8646 113.552 15.5104 113.969 15.9688C114.406 16.4062 114.865 16.7396 115.344 16.9688C115.885 17.2188 116.479 17.3646 117.125 17.4062ZM114.312 11.7812C114.979 11.8229 115.531 11.8542 115.969 11.875C116.427 11.8958 116.802 11.9167 117.094 11.9375C117.406 11.9583 117.656 11.9688 117.844 11.9688H118.625C119.146 11.9688 120.115 11.9375 121.531 11.875C121.469 10.9583 121.271 10.2604 120.938 9.78125C120.625 9.30208 120.292 8.94792 119.938 8.71875C119.521 8.46875 119.062 8.32292 118.562 8.28125C117.208 8.30208 116.198 8.58333 115.531 9.125C114.885 9.66667 114.479 10.5521 114.312 11.7812ZM126.375 7.46875C126.771 7.48958 127.125 7.5 127.438 7.5C127.771 7.47917 128.052 7.45833 128.281 7.4375C128.552 7.41667 128.792 7.39583 129 7.375C129.312 7.33333 129.635 7.28125 129.969 7.21875C130.26 7.17708 130.562 7.125 130.875 7.0625C131.208 6.97917 131.531 6.88542 131.844 6.78125C131.719 7.09375 131.615 7.36458 131.531 7.59375C131.448 7.82292 131.385 8.02083 131.344 8.1875C131.281 8.375 131.25 8.53125 131.25 8.65625C131.229 8.80208 131.219 8.97917 131.219 9.1875C131.198 9.54167 131.198 10.1146 131.219 10.9062C132.302 9.96875 133.208 9.23958 133.938 8.71875C134.688 8.19792 135.281 7.79167 135.719 7.5C136.24 7.16667 136.646 6.94792 136.938 6.84375C137.708 6.71875 138.385 6.89583 138.969 7.375C139.219 7.58333 139.458 7.86458 139.688 8.21875C139.917 8.55208 140.115 9 140.281 9.5625C140.448 10.125 140.573 10.8021 140.656 11.5938C140.74 12.3646 140.75 13.2917 140.688 14.375C140.25 14.4167 139.854 14.4583 139.5 14.5C139.167 14.5417 138.885 14.5729 138.656 14.5938C138.385 14.6354 138.135 14.6562 137.906 14.6562L137.062 14.75C136.771 14.7917 136.406 14.8333 135.969 14.875C135.552 14.8958 135.042 14.9375 134.438 15C135.312 14.2917 135.875 13.6771 136.125 13.1562C136.396 12.6146 136.51 12.1667 136.469 11.8125C136.427 11.4167 136.24 11.0729 135.906 10.7812C135.51 10.5521 135.083 10.4688 134.625 10.5312C134.229 10.5729 133.771 10.75 133.25 11.0625C132.729 11.375 132.177 11.9583 131.594 12.8125C131.635 14.1458 131.677 15.25 131.719 16.125C131.781 17 131.833 17.7083 131.875 18.25C131.938 18.875 131.99 19.3646 132.031 19.7188C132.094 20.0312 132.219 20.3646 132.406 20.7188C132.552 21.0104 132.76 21.3333 133.031 21.6875C133.302 22.0417 133.656 22.3958 134.094 22.75C133.177 22.7083 132.427 22.7083 131.844 22.75C131.49 22.7708 131.177 22.7917 130.906 22.8125C130.615 22.8542 130.302 22.8958 129.969 22.9375C129.677 22.9792 129.333 23.0208 128.938 23.0625C128.562 23.125 128.146 23.1875 127.688 23.25C127.854 23.0208 127.99 22.75 128.094 22.4375C128.198 22.1458 128.281 21.8646 128.344 21.5938C128.427 21.2812 128.49 20.9583 128.531 20.625C128.552 20.3333 128.562 19.8958 128.562 19.3125C128.583 18.7292 128.573 18.0729 128.531 17.3438C128.51 16.5938 128.479 15.8229 128.438 15.0312C128.396 14.2188 128.344 13.4583 128.281 12.75C128.219 12.0417 128.146 11.4271 128.062 10.9062C128 10.3646 127.927 9.98958 127.844 9.78125C127.74 9.53125 127.615 9.28125 127.469 9.03125C127.344 8.80208 127.188 8.5625 127 8.3125C126.812 8.04167 126.604 7.76042 126.375 7.46875ZM156.844 1.28125C157.885 1.34375 158.76 1.39583 159.469 1.4375C160.198 1.45833 160.802 1.47917 161.281 1.5C161.823 1.52083 162.281 1.52083 162.656 1.5C163.031 1.47917 163.542 1.42708 164.188 1.34375C164.729 1.28125 165.448 1.1875 166.344 1.0625C167.26 0.916667 168.396 0.729167 169.75 0.5C169.271 0.979167 168.896 1.41667 168.625 1.8125C168.375 2.1875 168.177 2.51042 168.031 2.78125C167.865 3.11458 167.75 3.39583 167.688 3.625C167.646 3.83333 167.688 4.35417 167.812 5.1875C167.938 6.02083 168.115 7.01042 168.344 8.15625C168.573 9.28125 168.823 10.4896 169.094 11.7812C169.365 13.0521 169.635 14.25 169.906 15.375C170.177 16.4792 170.417 17.4271 170.625 18.2188C170.854 18.9896 171.021 19.4479 171.125 19.5938C171.438 20.0312 171.635 20.3229 171.719 20.4688C171.802 20.5938 171.948 20.7083 172.156 20.8125C172.24 20.8542 172.375 20.9167 172.562 21C172.729 21.0833 172.948 21.1875 173.219 21.3125C173.51 21.4375 173.875 21.5833 174.312 21.75C173.5 21.7917 172.802 21.8229 172.219 21.8438C171.635 21.8438 171.156 21.8542 170.781 21.875C170.344 21.8958 169.969 21.9167 169.656 21.9375C169.344 21.9375 168.969 21.9583 168.531 22C168.156 22.0417 167.667 22.0833 167.062 22.125C166.479 22.1667 165.792 22.2083 165 22.25C165.417 21.9583 165.75 21.6979 166 21.4688C166.271 21.2188 166.479 21.0104 166.625 20.8438C166.792 20.6354 166.906 20.4479 166.969 20.2812C167.01 20.0938 167.042 19.8125 167.062 19.4375C167.083 19.1042 167.083 18.6667 167.062 18.125C167.042 17.5625 166.99 16.8333 166.906 15.9375L158.688 16.7812C158.479 17.1354 158.323 17.4479 158.219 17.7188C158.115 17.9688 158.042 18.1875 158 18.375C157.938 18.6042 157.917 18.7917 157.938 18.9375C157.979 19.1042 158.052 19.3021 158.156 19.5312C158.26 19.7396 158.406 19.9896 158.594 20.2812C158.802 20.5521 159.104 20.875 159.5 21.25C158.979 21.2292 158.448 21.2188 157.906 21.2188C157.365 21.2188 156.865 21.2292 156.406 21.25C155.865 21.2708 155.333 21.2917 154.812 21.3125C154.292 21.3333 153.698 21.3646 153.031 21.4062C152.469 21.4479 151.812 21.5 151.062 21.5625C150.292 21.6042 149.469 21.6667 148.594 21.75C149.135 21.5 149.594 21.25 149.969 21C150.344 20.7292 150.656 20.4792 150.906 20.25C151.198 20 151.448 19.7604 151.656 19.5312C151.802 19.3229 152.094 18.8438 152.531 18.0938C152.969 17.3229 153.458 16.4167 154 15.375C154.562 14.3333 155.146 13.2188 155.75 12.0312C156.375 10.8438 156.938 9.72917 157.438 8.6875C157.938 7.625 158.344 6.70833 158.656 5.9375C158.969 5.16667 159.125 4.66667 159.125 4.4375C159.083 4.16667 158.979 3.86458 158.812 3.53125C158.667 3.23958 158.438 2.90625 158.125 2.53125C157.833 2.15625 157.406 1.73958 156.844 1.28125ZM166.531 13.625C166.406 12.8958 166.292 12.2708 166.188 11.75C166.083 11.2083 166 10.7604 165.938 10.4062C165.854 9.98958 165.792 9.625 165.75 9.3125C165.688 9.02083 165.615 8.64583 165.531 8.1875C165.448 7.79167 165.344 7.30208 165.219 6.71875C165.115 6.11458 164.979 5.39583 164.812 4.5625C163.625 6.9375 162.698 8.78125 162.031 10.0938C161.385 11.3854 160.917 12.3333 160.625 12.9375C160.271 13.6458 160.073 14.0625 160.031 14.1875L166.531 13.625ZM173 0.90625C173.708 0.989583 174.302 1.05208 174.781 1.09375C175.281 1.11458 175.688 1.14583 176 1.1875C176.375 1.22917 176.667 1.25 176.875 1.25C177.104 1.27083 177.448 1.26042 177.906 1.21875C178.302 1.17708 178.833 1.125 179.5 1.0625C180.188 1 181.062 0.90625 182.125 0.78125C181.646 1.19792 181.26 1.60417 180.969 2C180.698 2.375 180.49 2.70833 180.344 3C180.156 3.35417 180.042 3.6875 180 4C179.917 4.5 179.844 5.1875 179.781 6.0625C179.74 6.91667 179.698 7.85417 179.656 8.875C179.615 9.89583 179.594 10.9479 179.594 12.0312C179.594 13.1146 179.604 14.1458 179.625 15.125C179.667 16.0833 179.729 16.9375 179.812 17.6875C179.917 18.4375 180.042 18.9792 180.188 19.3125C180.396 19.6875 180.615 20.0625 180.844 20.4375C181.052 20.75 181.302 21.0729 181.594 21.4062C181.885 21.7396 182.219 22.0104 182.594 22.2188C181.365 22.1562 180.385 22.125 179.656 22.125H178.531C178.198 22.125 177.771 22.1458 177.25 22.1875C176.812 22.2292 176.26 22.2708 175.594 22.3125C174.927 22.3542 174.125 22.4167 173.188 22.5C173.667 21.9792 174.042 21.4792 174.312 21C174.583 20.5208 174.802 20.1042 174.969 19.75C175.156 19.3333 175.281 18.9375 175.344 18.5625C175.427 18.0208 175.49 17.3542 175.531 16.5625C175.594 15.75 175.635 14.8854 175.656 13.9688C175.677 13.0312 175.677 12.0833 175.656 11.125C175.656 10.1458 175.635 9.20833 175.594 8.3125C175.552 7.41667 175.49 6.60417 175.406 5.875C175.344 5.14583 175.26 4.5625 175.156 4.125C175.094 3.85417 174.969 3.55208 174.781 3.21875C174.615 2.92708 174.385 2.59375 174.094 2.21875C173.823 1.82292 173.458 1.38542 173 0.90625Z" fill="#BAC85D"/>
</svg>
